<?xml version="1.0" encoding="utf-8"?>
<!-- Generator: Adobe Illustrator 18.1.1, SVG Export Plug-In . SVG Version: 6.00 Build 0)  -->
<!DOCTYPE svg PUBLIC "-//W3C//DTD SVG 1.1//EN" "http://www.w3.org/Graphics/SVG/1.1/DTD/svg11.dtd">
<svg version="1.1" id="Layer_1" xmlns="http://www.w3.org/2000/svg" xmlns:xlink="http://www.w3.org/1999/xlink" x="0px" y="0px"
	 viewBox="0 0 40 40" enable-background="new 0 0 40 40" xml:space="preserve">
<path d="M36.7,13.5c-0.6,0.1-3.2,0.6-4,0.8c-0.9,0.2-9.3,6.8-9.9,8.4c-0.1,0.6-0.2,1.4-0.2,2.2l-0.1,1.3c0,0.9,0.3,2.4,0.4,3.2
	c0.6,0.1,4.6,0,5.3,0.1l-0.1,1.7c-0.7-0.1-5.8,0-8.7,0c-1.5,0-6.2,0.2-7.7,0.1l0.3-1.6c0.8-0.1,4.1,0.1,4.8-0.6
	c0.4-0.4,0.2-0.8,0.2-3v-1c0-0.5,0-1.4-0.1-2.3C16.6,21.8,9.2,12.5,7.3,11c-0.6-0.2-4-0.5-4.9-0.7l0-1.4c0.4-0.2,4.3,0.1,8-0.1
	c2.5-0.1,8.1,0,8.8,0.1l-0.2,1.2c-0.7,0.2-4.3,0.3-5.2,0.5c2.4,3.6,6.2,8.2,7.4,9.9c0.7-1,6.6-5.1,6.8-6.5c-0.9-0.2-4-0.6-4.5-0.6
	l-0.3-1.6c0.8-0.1,5.2,0,7.4,0c1.9,0,5.9,0,7.1,0.1L36.7,13.5z"/>
</svg>
